<svg xmlns="http://www.w3.org/2000/svg" width="499.559" height="439.5"><path fill="#706F6F" d="M222.605 65.485c.34-.117-.346.105 0 0m0 0c.064-.02-.059.015 0 0"/><path fill="#706F6F" d="M251.656 239.501h-.217c-10.03 0-19.698-1.5-28.834-4.25-9.826-3.418-18.932-10.246-24.563-18.787-9.306-13.598-17.742-39.879-18.105-66.047v-.078c.363-26.168 8.801-52.449 18.105-66.055 5.631-8.531 14.735-15.387 24.563-18.801 9.136-2.766 19.015-4.227 29.051-4.227 10.027 0 19.906 1.461 29.054 4.227 9.819 3.414 18.938 10.27 24.573 18.801 9.293 13.605 17.73 39.887 18.082 66.055v.078c-.352 26.168-8.789 52.449-18.082 66.047-5.637 8.541-14.965 15.395-24.784 18.805a97.978 97.978 0 01-28.638 4.229h-.205v.003zm66.176-89.124c.322-19.711-5.684-43.631-11.473-56.357-6.416-14.563-16.207-23.406-30.598-27.34-7.74-1.988-15.873-3-24.229-3-8.351 0-16.529 1.012-24.271 3-14.379 3.934-24.182 12.777-30.58 27.34-5.801 12.727-11.801 36.646-11.483 56.357-.316 19.711 5.684 43.635 11.483 56.367 6.398 14.552 16.201 23.401 30.58 27.33 7.74 1.993 15.92 3.01 24.271 3.01 8.356 0 16.489-1.017 24.229-3.01 14.391-3.929 24.182-12.775 30.598-27.33 5.791-12.732 11.797-36.656 11.473-56.367zm-56.319-40.572c-.961-1.613-.176-.174-1.172-2.051"/><path fill="#706F6F" d="M253.953 232.433c-.064-3.607 3.465-5.428 5.686-7.818.604-.574.826-1.723.398-2.668-.271-.594-.65-.887-1.148-1.01-.772-.176-1.43-.061-1.928.369-.687.645-.873 1.48-.838 2.379l-2.48.145c-.211-1.367.129-2.692.963-3.729 1.154-1.23 2.883-1.57 4.57-1.459 1.342.223 2.912 1.031 3.469 2.438.715 1.524.476 3.489-.656 4.778-1.459 1.552-3.356 2.397-4.569 4.147l6.233-.371c.054.763.105 1.521.136 2.229l-9.836.57zm-22.137-15.593l-.041.117-4.061 12.46-2.596-.854 2.789-8.52.04-.146c-1.036-.367-2.284-.721-3.286-1.074l.526-1.621c1.313.348 2.66.574 3.81-.379.416-.328.485-.414.715-.66l2.104.677zm49.361 6.908c-.328-1.228-1.014-2.213-2.379-2.605l-.791-.17c.813-.574 1.563-1.736 1.295-2.859-.193-1.284-1.119-2.098-2.285-2.538-1.02-.32-2.215-.264-3.346.041-1.148.258-2.215.768-2.988 1.524-.813.932-1.26 2.08-.82 3.305.275 1.123 1.478 1.795 2.455 1.932l-.614.517c-1.037.996-1.166 2.172-.892 3.414.299 1.379 1.412 2.461 2.76 2.858 1.009.254 2.232.234 3.429-.047 1.194-.297 2.285-.844 3.059-1.559 1.006-.985 1.486-2.442 1.117-3.813zm-8.578-3.56c-.315-.535-.315-1.449.246-1.988.316-.34.785-.58 1.289-.703.492-.135 1.031-.137 1.477.023.732.223 1.148 1.027 1.138 1.652-.013.48-.224.861-.533 1.154-.316.287-.769.492-1.236.6a2.87 2.87 0 01-1.358.046c-.419-.123-.789-.357-1.023-.784zm5.449 6.011c-.328.385-.92.682-1.56.834-.645.159-1.301.18-1.77-.017-.645-.244-1.09-.738-1.254-1.31-.246-.856 0-1.758.721-2.27a4.71 4.71 0 011.267-.563c.504-.103 1.014-.133 1.377-.078.896.104 1.528.789 1.705 1.652a2 2 0 01-.486 1.752zm-30.547 2.228c.053-1.262-.306-2.414-1.488-3.191l-.703-.398c.938-.301 1.998-1.182 2.074-2.342.205-1.289-.445-2.344-1.418-3.117-.885-.604-2.027-.896-3.205-.955-1.172-.09-2.35.076-3.299.566-1.066.646-1.834 1.619-1.787 2.914-.059 1.152.885 2.16 1.787 2.574l-.75.314c-1.295.631-1.771 1.723-1.863 2.99-.123 1.414.615 2.766 1.787 3.543.873.565 2.057.905 3.287.991 1.213.067 2.426-.142 3.381-.59 1.254-.631 2.139-1.883 2.197-3.299zm-7.125-5.946c-.135-.606.141-1.483.832-1.832.387-.229.926-.321 1.43-.28.516.028 1.031.182 1.4.457.645.422.803 1.327.598 1.918-.146.469-.475.75-.855.948-.393.168-.872.229-1.354.197-.48-.021-.949-.144-1.313-.365-.351-.232-.65-.569-.738-1.043zm3.411 7.352c-.429.268-1.084.385-1.74.336-.656-.033-1.283-.234-1.683-.535a2.023 2.023 0 01-.797-1.645c.019-.875.521-1.662 1.365-1.935a4.157 4.157 0 011.371-.156c.504.039 1.008.158 1.342.319.814.375 1.219 1.212 1.131 2.101-.052.578-.409 1.161-.989 1.515zm62.374-127.801l-12.134 5.226-1.078-2.515 12.123-5.239zM260.47 81.073l-3.117-13.592 2.877.289c.574 3.363 1.166 7.176 1.847 10.012 1.241-2.645 2.584-6.258 3.813-9.426l2.836.281-5.742 12.691-2.514-.255zm-51.582 7.771l-2.947 5.274-2.49-1.383 3.375-6.051-1.893-1.074-4.723 8.473 11.52 6.441 4.728-8.481-1.91-1.066-3.386 6.066-3.229-1.812 2.959-5.273zm-6.984 56.102c-.627-1.424-2.155-1.986-3.731-1.91-1.33.168-2.338 1.066-2.906 2.438-.199-.803-.955-1.805-2.221-1.963-1.324-.162-2.596.199-3.229 1.318-.873 1.113-.491 6.023-.58 8.854l13.107-.012.006-.955c-.077-5.216.228-5.848-.446-7.77zm-7.447 5.976h-3.246c.1-3.016-.394-4.641 1.459-4.834 1.096-.082 1.389.158 1.641.826.21.674.146 1.389.146 4.008zm5.695-.004l-3.686.004h-.023c.064-2.93-.393-4.658 1.354-4.998.608-.164 1.358-.1 1.811.357.749.723.52 1.923.544 4.637zm106.115-41.546l2.098-.547 2.66 10.322-2.11.541-.972-3.813-10.606 2.735-.673-2.674 10.587-2.732zM239.65 81.823c1.465-.223 2.849-.834 3.779-1.924.797-.902.914-1.77.791-2.738l-1.506-9.445-2.695.432 1.519 9.439c.088.711-.404 1.445-1.037 1.809-.353.227-.763.352-1.201.41a3.075 3.075 0 01-1.254-.012c-.715-.145-1.4-.621-1.553-1.395l-1.529-9.432-2.678.436 1.518 9.432c.188.961.568 1.746 1.617 2.357 1.213.738 2.719.887 4.195.633l.034-.002zm72.711 46.254l-13.711-2.752.375 2.676 2.988.545.649 4.723-2.707 1.342.357 2.684 12.445-6.406-.396-2.812zm-7.623 4.162l-.457-3.271 5.695.871h.018l-.012.006h.023-.029l-5.238 2.394zm5.642 18.519l.246-.041.299-.076.217-.088c.873-.469 1.078-1.629 1.025-2.566-.023-.955-.322-1.922-1.214-2.279-.469-.123-1.049-.164-1.364.316-1.494 2.207-.457 6.879-4.295 7.693-1.677.287-3.146-.451-4.015-1.791-1.188-2.113-1.283-5.439.076-7.508.82-1.07 1.928-1.734 3.264-1.746l.17 2.535c-.825.107-1.635.527-2.01 1.344-.551 1.32-.428 3.422.551 4.199.363.4 1.173.348 1.617.113 1.529-1.096 1.219-3.826 1.986-5.656.252-.777.979-1.563 1.693-1.957 1.354-.582 3.088-.371 4.178.699 1.758 1.66 1.834 4.914 1.024 6.885-.457 1.371-1.95 2.361-3.479 2.449l-.164-2.52.195-.005zm-106.25-19.939c.246-1.477.1-2.99-.65-4.189-.604-1.049-1.395-1.426-2.367-1.623l-9.434-1.467-.428 2.674 9.444 1.5c.709.105 1.248.83 1.396 1.533.1.4.1.834.022 1.27-.059.426-.188.848-.415 1.199-.363.617-1.021 1.125-1.806 1.027l-9.434-1.461-.422 2.68 9.444 1.48c.974.117 1.834-.004 2.736-.809 1.084-.926 1.682-2.32 1.91-3.785v-.029h.004zm14.643-56.416l-2.414 1.469 2.896 13.676 2.32-1.395-.687-2.957 4.066-2.48 2.319 1.969 2.304-1.406-10.804-8.876zm1.605 8.543l-1.459-5.564-.012-.023.012.01-.006-.023.012.031 4.266 3.852-2.813 1.717zm62.463-4.25l-5.554-2.332 1.095-2.627 6.381 2.672.856-2.014-8.948-3.74-5.103 12.178 8.953 3.738.85-2.02-6.411-2.681 1.424-3.405 5.596 2.352zm-80.369 29.246c-.006-.902-.053-1.652-.803-2.377-.721-.752-1.875-1.092-3.006-1.018-2.941.449-3.328 3.82-4.963 9.168l12.645 3.77.797-2.645-5.004-1.482-.199-.057c.334-1.223.832-2.762 1.072-3.096.902-2.086 4.254-.041 5.578-.232l.772-2.625c-2.248.125-5.278-1.894-6.889.594zm-2.625 4.725l-3.316-.975c.732-2.25 1.056-4.523 2.638-4.395.645.109 1.084.281 1.453.742.614.76-.177 2.454-.775 4.628zm94.877-30.995l-10.471 8 1.664 2.188 4.137-3.158.182-.127c.773.988 1.74 2.293 1.857 2.684 1.166 1.965-2.484 3.457-3.082 4.652l1.652 2.168c1.225-1.91 4.641-3.156 3.567-5.92.738.537 1.377.939 2.408.748 1.037-.145 1.992-.871 2.596-1.84 1.355-2.645-1.135-4.942-4.51-9.395zm1.981 8.203c-.463.453-.851.699-1.447.725-.996.049-1.887-1.584-3.287-3.35l2.73-2.098c1.406 1.909 3.046 3.515 2.004 4.723zm-9.75 10.438c-2.783-6.328-8.326-10.984-15.082-12.914a77.882 77.882 0 00-20.105-2.676h-.217c-6.891 0-13.764.965-20.109 2.676-6.756 1.93-12.287 6.586-15.082 12.914-6.069 13-10.037 31.691-10.037 50.064 0 18.385 3.968 37.066 10.037 50.063 2.795 6.326 8.326 10.992 15.082 12.92a78.1 78.1 0 0020.109 2.666h.217c6.887 0 13.767-.959 20.105-2.666 6.756-1.928 12.299-6.594 15.082-12.92 6.053-12.996 10.037-31.678 10.037-50.063 0-18.373-3.985-37.064-10.037-50.064zm-11.666 37.244c.188.006 1.071-.182 1.09-.738v-11.602c1.6-.373 3.211-.92 4.717-1.229v6.994c.914-.105 1.365-.223 2.484-.393v9.217l-2.871.432-.896 3.717h-10.225l-1.523-3.311c-2.479-.229-2.653-.229-5.149-.406 2.344-3.021 4.752-6.031 6.381-9.34v-4.715l4.611-.59v11.178c0 .389.567.785 1.143.785l.238.001zm-6.006-42.646c1.147-.332 2.713-.188 3.686.676 1.307.945 1.688 2.547 1.371 4.035-.914 3.215-4.506 3.813-7.418 4.574l-1.594-2.168c.591-2.77.908-5.969 3.955-7.117zm-8.942 12.843l1.172 2.051-2.924 3.199c-.791-.758-.855-.83-1.642-1.652 1.508-1.578 1.654-1.742 3.394-3.598zm-36.207-4.363l.006-.016c.516 1.52 1.478 2.609 3 3.332-.176-.813-.885-1.543-1.113-2.395-.662-1.668-.598-4.045.486-5.496.768-1.141 1.875-1.609 3.088-1.996-.463 1.375-.604 3.012-.041 4.402.797-.602.838-.641 1.453-1.238.229-.223.334-.293.533-.445 1.131 2.406 2.401 5.719 1.658 8.523l-.457 1.203c-.183-1.979-.504-2.926-1.834-3.641-.177 1.148.563 1.977.731 3.477.545 2.324.117 4.629-1.317 5.969h-3.709c-2.835-3.027-3.029-7.573-2.484-11.679zm8.543 15.301h-1.986l-.854 7.082a7.805 7.805 0 00-2.877-1.648c-.504-3.008-.551-3.223-.826-5.434h-1.916v-2.102c3.305-.012 5.139.004 8.455.004l.004 2.098zm-14.379 28.176l22.734-.012v6.605l-22.734.02v-6.613zm8.795-13.262c.949-.256 1.869.336 2.596.883-.11 3.832-.11 3.789-.192 7.813h-2.109l-.012-.645c-.084-3.045-.212-5.043-.283-8.051zm2.42 45.67c-1.324.926-2.549 1.006-3.85 1.002-.422-.006-1.179-.064-1.611-.199-.979-.246-2.367-.773-3.199-2.098l-.164-.311-.146-.398-.183-.422-.069-.666.006-12.352c-.111-1.555-.691-1.584-1.957-2.527l.451-.152 5.004-1.637c.709.777.873 1.771.938 2.801v9.652c-.012.627.533.984 1.254 1.021.855 0 1.207-.322 1.277-1.002.064-4.324-.07-5.537 0-9.467.111-1.32 1.289-2.641 2.402-2.943 1.389-.662 3.063-.404 4.301.211 2.231 1.053 2.121 5.414 2.098 8.953-.873-.574-1.014-.645-1.887-.885-.762-.164-1.6-.018-2.191.434-.721.66-.797 1.301-.809 2.455-.059 4.094.392 6.913-1.665 8.53zm2.813 14.379c-1.084-.715-1.336-1.418-1.718-2.408-.92-4.195 4.148-5.701 5.351-9.188.942-5.83 1.225-11.971 5.278-16.512.398-8.561 3.171-16.137 9.259-22.359-.287-1.934-1.078-3.605-1.658-5.406-.797-.031-1.336-.184-2.058-.824-.526-.748-.743-1.305-.879-2.207-2.121 2.629-4.746 5.566-7.635 7.342-.526.299-1.201-.328-2.168-1.225-3.545-2.805-4.143-9.135-9.545-8.859-2.455-.824-2.338-3.715-2.742-5.877.908-.666 2.392-.633 3.48-.209 3.375 1.805 5.625 5.605 8.807 8.148.851.68 1.617 1.57 2.402 1.898 2.092-1.801 3.762-3.346 5.186-6.123.979-1.584 2.607-2.264 4.412-2.287l1.283-1.512-.68-3.781a27.433 27.433 0 01-3.293-5.336c.463-2.164.743-4.688 2.936-5.883 1.437-.891 2.602 1.137 3.779-.148.854-.176 1.6.059 2.199.547.891 1.549 1.938 3.086 1.997 4.887-.545 1.748-1.37 3.367-2.198 5.004-.188.355-.691.473-1.031.738.205.738.381 1.559.891 2.145.652.137 1.273.25 2.054.109.633-1.912 2.688-2.77 4.405-3.285l3.769-2.457c-.604-2.859 1.229-5.371.211-8.217-2.156-1.02-2.771-3.445-3.234-5.357.347-1.18.926-2.447 1.781-3.455l.123.15c2.063 2.391 3.949 4.855 4.604 7.828.369 3.797.738 7.688.492 11.65-2.039 2.029-4.494 3.232-6.803 4.736l-1.717 3.291c-.205 3.396-1.201 6.451-1.724 9.738 1.466 3.973 3.199 9.264 1.923 12.938-.984 2.191-3.041 3.387-4.57 4.605l-3.863 3.088c3.881 4.266 2.943 9.105 3.107 15.293-.041 1.494 2.637 2.736 1.213 4.441-1.195 1.91-3.056 3.457-2.744 5.965-1.189 1.996-4.021 2.422-5.367 2.402a.476.476 0 01-.51-.486c.281-1.025 1.078-1.828 1.5-2.801 1.383-2.111.75-5.027 2.461-6.99-1.406-4.6-3.539-8.859-4.125-13.764l-.035-.314c-1.154 2.254-.516 4.465.088 6.244-3.803 4.795-7.928 9.404-7.928 15.709-1.629 2.889-3.938 5.52-5.146 8.574-.396.515-1.157.069-1.62-.2zm25.226-15.17c2.227.1 4.477 1.951 5.344 4.025.885 2.121.539 4.893-.832 6.658-1.711 2.078-4.084 3.18-6.85 2.682-1.742-.385-3.459-1.447-4.461-3.08 1.424-.477 3.451-1.297 3.852-2.68-.104-2.156 1.377-3.883 2.479-5.602.562-.741.632-1.191.468-2.003zm2.115-1.914l.018-19.504c2.789-.039 3.687.037 6.58-.016v19.52h-6.598zm-14.175 29.763c-1.806 1.307-4.8 1.611-6.798.492-1.147-.551-2.18-1.664-2.807-2.754-.475-1.043-.668-1.406-.709-2.484 4.752 0 7.963 0 13.002.006-.028 1.805-1.048 3.569-2.688 4.74zm8.908.493h-4.479v-8.033l-6.974.006v-3.234h7.003l2.196-2.596c1.066 1.246 1.154 1.336 2.265 2.596h6.989v3.234l-7.002-.006.002 8.033zm14.016-2.754c-.64 1.09-1.652 2.203-2.808 2.754-1.991 1.119-4.998.814-6.791-.492-1.635-1.172-2.659-2.936-2.684-4.74 5.039-.006 8.227-.006 12.996-.006-.051 1.078-.227 1.441-.713 2.484zm1.054-44.295c1.066-.828 1.928-1.549 3.199-2.545-.094 2.529-.445 5.098.772 6.6 2.988 2.969 5.689 5.652 8.373 8.289 1.002 1.078 1.793 2.621 1.144 4.047a12.4 12.4 0 01-1.201 2.086c0-1.387-.598-2.189-1.389-2.975-3.656-3.586-9.979-8.584-10.488-10.709-.55-1.42-.375-3.143-.41-4.793zm10.184-2.557c1.396 1.143 2.099 1.775 3.423 3.033.75 3.324-1.242 5.207-2.73 7.539l-5.895-5.633v-3.281c.702-.768.948-1.051 1.77-1.855l1.664 2v5.547c2.342-1.139 1.768-4.467 1.768-7.35zm-1.401 29.742c-.703.773-.949 1.057-1.771 1.863l-1.664-1.998v-5.563c-2.338 1.148-1.774 4.467-1.774 7.348-1.383-1.129-2.08-1.771-3.41-3.021-.75-3.322 1.229-5.209 2.736-7.547l5.883 5.637v3.281zm4.975-.896c-1.055.838-1.928 1.551-3.199 2.537.095-2.525.451-5.098-.768-6.596-2.982-2.957-5.684-5.65-8.373-8.287-.996-1.078-1.799-2.623-1.143-4.049.311-.686.737-1.461 1.2-2.08 0 1.389.609 2.18 1.396 2.965 3.656 3.586 9.979 8.59 10.488 10.709.546 1.432.376 3.137.399 4.801zm2.285-32.555l-22.734-.031v-6.613l22.734-.012v6.656zm12.047 106.54l-.006-.023v.035l-2.438 8.205h4.893l-2.449-8.205v-.012zm-58.285-.617c-1.153-.09-3.252.043-5.18 0v5.063c3.768.01 4.342-.002 5.514-.108 1.166-.117 1.916-1.173 1.916-2.613-.012-1.451-1.078-2.229-2.25-2.342zm-63.018 4.531c1.43 0 2.297-.969 2.297-2.555 0-1.511-1.148-2.181-2.449-2.181h-4.758l.006 4.733h4.904v.003zm.282 3.166c-1.939-.119-3.738-.107-5.187-.107v.035l-.018 5.492c4.043-.051 4.184 0 5.565-.16 1.406-.164 2.068-1.41 2.068-2.633s-.905-2.531-2.428-2.627zm-28.313-16.147v30.209h205.643v-30.209H148.226zm28.313 24.821h-9.281v-19.605c3.938.012 6.229 0 9.486 0 3.022 0 5.407 1.641 5.637 4.641.205 2.074-.445 3.871-2.937 4.496 2.203.609 3.621 2.621 3.634 5.229.011 2.224-1.717 5.239-6.539 5.239zm36.656-5.287c-.047 1.467-.422 2.705-1.805 3.846-1.617 1.381-3.809 1.943-6.012 1.934h-.06c-2.215.011-4.395-.553-6.006-1.934-1.395-1.141-1.764-2.379-1.828-3.846v-14.271h4.05l.012 14.271c.035 1.166.926 2.033 1.951 2.404a4.101 4.101 0 001.852.32 4.073 4.073 0 001.846-.32c1.021-.371 1.929-1.34 1.945-2.404l.006-14.271h4.049v14.271zm28.74 5.294c-.932-.008.451-7.791-2.918-7.992-1.887-.125-3.07-.045-4.945-.021l.019 8.013H230v-19.629c3.756.026 5.912.051 9.28.051 3.035.147 6.06 1.367 6.265 4.664.229 3.813-1.928 4.688-3.949 5.345 4.682 1.004 2.947 6.467 4.195 9.569h-3.856zm32.182-12.187l.012 3.397h-9.006l-.006 5.488h10.323l.006 3.266h-14.432v-19.641h14.432l-.006 3.247-10.307.011v4.224l8.984.008zm28.417 12.187l-1.424-4.285h-7.096l-1.424 4.285h-4.021l6.873-19.638h4.23l6.866 19.638h-4.004zm32.338-5.319c-.063 1.461-.434 2.698-1.827 3.836-1.611 1.391-3.798 1.948-6.013 1.938h-.053c-2.203.012-4.395-.547-6.012-1.938-1.383-1.138-1.765-2.375-1.822-3.836v-14.281h4.066v14.281c.034 1.164.938 2.02 1.938 2.409a4.675 4.675 0 001.863.32 4.592 4.592 0 001.846-.32c1.014-.391 1.928-1.353 1.945-2.409l.006-14.281h4.061l.002 14.281zm-102.699 23.847c-1.154-.105-3.264.027-5.18 0v5.059c3.743.012 4.33-.004 5.495-.125 1.16-.117 1.935-1.16 1.923-2.602-.011-1.453-1.078-2.246-2.238-2.332zm69.195.614l-.006.022-.006-.022v.035l-2.455 8.223h4.898l-2.433-8.223.002-.035zm-153.142-8.997v30.217h205.643v-30.217H148.226zm28.002 24.793h-3.762l-6.656-19.646 4.295-.008c1.359 4.905 2.813 10.448 4.236 14.555 1.436-4.104 2.895-9.647 4.236-14.547l4.241-.008-6.59 19.654zm31.477-12.156v3.395l-9-.008v5.5h10.313l.012 3.266h-14.426v-19.652h14.433l-.019 3.25-10.301.009v4.233l8.988.007zm27.111 12.097c-.92 0 .451-7.78-2.912-7.991-1.893-.105-3.069-.021-4.944-.005l.018 7.996h-4.084v-19.621c3.75.022 5.906.044 9.287.044 3.029.159 6.053 1.379 6.252 4.68.234 3.811-1.928 4.684-3.943 5.34 4.683 1.014 2.937 6.463 4.195 9.559l-3.869-.002zm22.408.059h-4.109v-19.652h4.109v19.652zm27.258-16.296h-5.858v16.297h-4.09l-.019-16.297-5.877.004v-3.209h15.844v3.205zm21.838 16.296l-1.424-4.285H297.8l-1.418 4.285h-4.025l6.891-19.646h4.214l6.879 19.646h-4.021zm21.632.441c-5.965 0-8.262-3.728-8.262-6.584l3.756-.14c0 1.56 1.472 3.587 4.207 3.587 2.109 0 4.453-.445 4.453-2.75 0-4.173-11.813-1.728-11.813-8.349 0-3.527 2.401-6.543 7.594-6.543 7.201 0 7.846 4.887 7.846 6.141l-3.779.138c0-1.601-.973-3.073-3.627-3.073-2.883 0-4.002 1.254-4.002 2.625 0 3.53 11.877 1.719 11.877 8.336 0 4.388-3.416 6.612-8.25 6.612zM70.549 371.687c-3.696 0-6.503-.789-8.898-3.227l3.08-3.088c1.54 1.543 3.628 2.059 5.888 2.059 2.807 0 4.313-1.064 4.313-3.02 0-.857-.239-1.578-.753-2.06-.479-.446-1.026-.688-2.156-.858l-2.942-.412c-2.088-.31-3.628-.961-4.724-2.023-1.164-1.168-1.746-2.746-1.746-4.805 0-4.357 3.219-7.412 8.488-7.412 3.354 0 5.784.822 7.872 2.848l-3.012 2.986c-1.54-1.477-3.39-1.682-4.997-1.682-2.533 0-3.766 1.405-3.766 3.088 0 .617.205 1.27.72 1.75.479.446 1.266.824 2.259.961l2.875.412c2.225.309 3.628.926 4.654 1.887 1.301 1.236 1.883 3.021 1.883 5.182-.002 4.736-3.938 7.414-9.038 7.414zm22.941-.208v-10.912c0-2.366-1.507-3.157-2.909-3.157-1.403 0-2.875.823-2.875 3.157v10.912h-4.449v-24.435h4.449v8.201c1.197-1.233 2.704-1.852 4.277-1.852 3.901 0 5.955 2.744 5.955 6.52v11.564l-4.448.002zm18.094 0v-1.543c-1.198 1.201-2.328 1.715-4.381 1.715-2.021 0-3.491-.514-4.554-1.577-.958-.996-1.472-2.439-1.472-4.017 0-2.849 1.951-5.183 6.093-5.183h4.21v-.893c0-1.955-.959-2.814-3.319-2.814-1.711 0-2.498.412-3.424 1.478l-2.841-2.778c1.746-1.923 3.457-2.472 6.436-2.472 4.997 0 7.599 2.127 7.599 6.313v11.771h-4.347zm-.102-7.548h-3.524c-1.608 0-2.499.754-2.499 2.023 0 1.235.82 2.061 2.566 2.061 1.231 0 2.021-.104 2.808-.859.479-.445.649-1.166.649-2.264v-.961zm22.023 6.143c-.993.993-2.603 1.612-4.347 1.612-1.814 0-3.149-.479-4.313-1.785v8.134h-4.449V353.6h4.313v1.683c1.23-1.373 2.565-1.888 4.449-1.888 1.744 0 3.354.617 4.347 1.61 1.779 1.785 1.813 4.841 1.813 7.517.001 2.679-.033 5.767-1.813 7.552zm-5.647-12.664c-2.67 0-3.012 2.196-3.012 5.112 0 2.918.342 5.147 3.012 5.147s3.013-2.229 3.013-5.147c-.001-2.916-.343-5.112-3.013-5.112zm11.403-6.864v-3.637h4.552v3.637h-4.552zm.069 20.933V353.6h4.448v17.879h-4.448zm19.363 0v-10.81c0-2.438-1.54-3.262-2.942-3.262-1.403 0-2.979.824-2.979 3.262v10.81h-4.449V353.6h4.348v1.646c1.163-1.233 2.806-1.852 4.449-1.852 1.778 0 3.217.582 4.209 1.578 1.438 1.441 1.813 3.123 1.813 5.078v11.428l-4.449.001zm15.195 6.763c-2.738 0-4.62-.552-6.469-2.334l2.771-2.814c.992.961 1.985 1.373 3.491 1.373 2.669 0 3.594-1.889 3.594-3.707v-1.818c-1.164 1.305-2.499 1.785-4.243 1.785-1.745 0-3.253-.584-4.244-1.58-1.678-1.68-1.813-3.98-1.813-7.104 0-3.121.137-5.388 1.813-7.068.991-.996 2.532-1.578 4.277-1.578 1.884 0 3.114.514 4.348 1.887v-1.682h4.313v17.227c0 4.29-3.046 7.413-7.838 7.413zm.445-20.832c-2.637 0-2.909 2.266-2.909 4.633 0 2.369.272 4.668 2.909 4.668 2.635 0 2.942-2.299 2.942-4.668.002-2.368-.307-4.633-2.942-4.633zm29.462 14.069v-1.543c-1.197 1.201-2.327 1.715-4.381 1.715-2.021 0-3.491-.514-4.553-1.577-.958-.996-1.472-2.439-1.472-4.017 0-2.849 1.951-5.183 6.092-5.183h4.21v-.893c0-1.955-.958-2.814-3.319-2.814-1.711 0-2.498.412-3.422 1.478l-2.842-2.778c1.745-1.923 3.457-2.472 6.436-2.472 4.997 0 7.598 2.127 7.598 6.313v11.771h-4.347zm-.102-7.548h-3.524c-1.608 0-2.498.754-2.498 2.023 0 1.235.821 2.061 2.565 2.061 1.232 0 2.021-.104 2.808-.859.479-.445.649-1.166.649-2.264v-.961zm38.292 7.548h-3.97l-4.482-14.824-4.483 14.824h-3.971l-6.502-24.435h4.962l3.765 15.408 4.449-15.408h3.56l4.449 15.408 3.799-15.408h4.963l-6.539 24.435zm20.538-1.989c-1.094 1.168-2.907 2.196-5.542 2.196-2.637 0-4.416-1.028-5.512-2.196-1.608-1.683-2.02-3.705-2.02-6.968 0-3.226.41-5.25 2.02-6.933 1.096-1.166 2.875-2.194 5.512-2.194 2.635 0 4.448 1.028 5.542 2.194 1.609 1.683 2.021 3.707 2.021 6.933-.002 3.263-.412 5.286-2.021 6.968zm-3.455-11.289c-.513-.517-1.197-.791-2.087-.791-.891 0-1.541.274-2.055.791-.924.926-1.027 2.471-1.027 4.321 0 1.854.104 3.433 1.027 4.358.514.515 1.164.789 2.055.789.89 0 1.574-.274 2.087-.789.925-.928 1.025-2.506 1.025-4.358 0-1.851-.101-3.396-1.025-4.321zm19.09.273c-.685-.686-1.267-1.064-2.361-1.064-1.369 0-2.875 1.031-2.875 3.295v10.775h-4.449v-17.879h4.346v1.717c.857-1.029 2.568-1.922 4.484-1.922 1.746 0 2.979.445 4.209 1.682l-3.354 3.396zm11.24 13.005c-3.662 0-5.203-2.574-5.203-5.112v-19.32h4.449v19.047c0 1.063.445 1.613 1.574 1.613h1.713v3.772h-2.533zm15.861 0v-1.683c-1.232 1.373-2.533 1.89-4.416 1.89-1.746 0-3.389-.619-4.381-1.612-1.779-1.785-1.814-4.873-1.814-7.552 0-2.676.035-5.729 1.814-7.517.992-.993 2.602-1.61 4.348-1.61 1.813 0 3.182.479 4.346 1.783v-8.134h4.449v24.435h-4.346zm-3.148-14.069c-2.67 0-3.014 2.196-3.014 5.112 0 2.918.344 5.147 3.014 5.147 2.668 0 3.045-2.229 3.045-5.147 0-2.916-.377-5.112-3.045-5.112zm32.746 12.08c-1.094 1.168-2.908 2.196-5.543 2.196-2.637 0-4.416-1.028-5.512-2.196-1.607-1.683-2.021-3.705-2.021-6.968 0-3.226.412-5.25 2.021-6.933 1.096-1.166 2.875-2.194 5.512-2.194 2.635 0 4.449 1.028 5.543 2.194 1.609 1.683 2.021 3.707 2.021 6.933-.002 3.263-.412 5.286-2.021 6.968zm-3.455-11.289c-.514-.517-1.199-.791-2.088-.791-.891 0-1.541.274-2.055.791-.924.926-1.027 2.471-1.027 4.321 0 1.854.104 3.433 1.027 4.358.514.515 1.164.789 2.055.789.889 0 1.574-.274 2.088-.789.924-.928 1.025-2.506 1.025-4.358 0-1.851-.102-3.396-1.025-4.321zm14.486-.688v13.967h-4.449v-13.967h-1.848v-3.396h1.848v-2.229c0-2.541 1.574-5.113 5.201-5.113h2.533v3.772h-1.746c-1.062 0-1.539.584-1.539 1.613v1.957h3.285v3.396h-3.285zm24.297-6.211v20.178h-4.758v-20.178h-6.367v-4.256h17.49v4.256h-6.365zm16.783 7.172c-.685-.686-1.267-1.064-2.361-1.064-1.369 0-2.875 1.031-2.875 3.295v10.775h-4.449v-17.879h4.347v1.717c.856-1.029 2.567-1.922 4.483-1.922 1.746 0 2.979.445 4.209 1.682l-3.354 3.396zm16.492 13.005v-1.646c-1.162 1.233-2.806 1.854-4.449 1.854-1.779 0-3.217-.584-4.209-1.58-1.438-1.441-1.814-3.121-1.814-5.078v-11.428h4.449v10.811c0 2.437 1.541 3.26 2.943 3.26 1.403 0 2.979-.823 2.979-3.26v-10.811h4.449v17.879l-4.348-.001zm15.057.208c-2.807 0-5.34-.309-7.598-2.574l2.907-2.918c1.474 1.477 3.39 1.682 4.759 1.682 1.54 0 3.147-.514 3.147-1.852 0-.893-.479-1.512-1.883-1.648l-2.807-.272c-3.218-.312-5.201-1.717-5.201-5.013 0-3.704 3.252-5.694 6.879-5.694 2.772 0 5.1.479 6.811 2.093l-2.737 2.78c-1.025-.929-2.601-1.201-4.142-1.201-1.779 0-2.533.822-2.533 1.716 0 .651.275 1.407 1.851 1.545l2.807.272c3.523.345 5.306 2.231 5.306 5.252-.002 3.943-3.357 5.832-7.566 5.832zm16.961-.208c-3.627 0-5.168-2.574-5.168-5.112v-8.854h-1.883v-3.396h1.883v-5.285h4.449v5.285h3.147v3.396h-3.147v8.579c0 1.029.479 1.613 1.541 1.613h1.606v3.773l-2.428.001z"/></svg>